<svg xmlns="http://www.w3.org/2000/svg" width="45.334" height="42.497" viewBox="0 0 45.334 42.497"><defs><style>.a{fill:#5d646b;}</style></defs><path class="a" d="M3.968,29.112l-1.818.71A2.744,2.744,0,0,0,.5,34.1c1.1,1.676,3.487,2.273,5.319,2.631A4.914,4.914,0,0,0,6.5,38.513a2.723,2.723,0,0,0,2.8,1.131c3.99-.616,4.439-.3,5.929.758a22.1,22.1,0,0,0,2.744,1.709A12.418,12.418,0,0,0,22.664,43a11.715,11.715,0,0,0,5.1-1.072c1.784-1.025,4.13-3.37,7.721-2.431a3.26,3.26,0,0,0,2.655-.264,3.524,3.524,0,0,0,1.4-2.511c2.04-.417,4.69-1.031,5.566-3.139a2.706,2.706,0,0,0-1.854-3.736l-1.88-.728A8.21,8.21,0,0,1,36.7,24.407h1.994a3.985,3.985,0,0,0,0-7.969H36.043l.115-1.262a13.539,13.539,0,1,0-26.981,0l.115,1.262H6.641a3.984,3.984,0,1,0,0,7.968H8.659A8.281,8.281,0,0,1,3.968,29.112Zm2.672-7.361a1.328,1.328,0,0,1,0-2.657H12.2l-.379-4.159a10.882,10.882,0,1,1,21.69,0l-.379,4.159h5.561a1.328,1.328,0,0,1,0,2.657H33.281l.338,1.6a11.03,11.03,0,0,0,6.794,8.239l2.061.8a.736.736,0,0,1,.2.06.214.214,0,0,1-.023.109c-.37.891-2.658,1.356-3.888,1.606l-.441.09c-1.077.226-1.273,1.306-1.379,1.887a3.062,3.062,0,0,1-.232.843,1.35,1.35,0,0,1-.553-.063c-4.754-1.242-7.986,1.676-9.659,2.666a10.056,10.056,0,0,1-7.451.091,20.25,20.25,0,0,1-2.281-1.445c-1.953-1.384-3.021-1.965-7.87-1.216a.667.667,0,0,1-.2.008,3.156,3.156,0,0,1-.314-.974c-.129-.6-.345-1.61-1.38-1.8l-.1-.018c-1.166-.217-3.59-.669-4.192-1.589-.073-.111-.069-.184-.062-.2s.191-.048.222-.056l2.052-.8a11.136,11.136,0,0,0,6.8-8.172l.36-1.663Zm0,0" transform="translate(0 -0.5)"/></svg>